<svg width="112" height="32" viewBox="0 0 112 32" fill="none" xmlns="http://www.w3.org/2000/svg">
<path fill-rule="evenodd" clip-rule="evenodd" d="M15.4948 25.8368C12.1047 25.6295 8.8583 23.5559 7.28006 20.5255C5.81542 17.7133 5.83846 14.1805 7.33542 11.3898C9.01126 8.26594 12.3354 6.36098 16.0148 6.19714C16.0148 6.19714 16.929 6.13858 17.5393 5.79202C19.3498 4.76322 19.6202 1.72642 17.6743 0.486418C17.1505 0.152658 16.5252 -0.00190234 15.9018 1.76635e-05C9.75494 0.0588977 3.81094 3.90018 1.31238 9.59907C-0.787466 14.3892 -0.350666 20.1981 2.50214 24.64C4.77254 28.1748 8.47526 30.7597 12.5828 31.6535C18.2039 32.8768 24.4302 30.7978 28.1876 26.4141C31.913 22.0672 33.0513 15.6416 30.9649 10.2474C29.7687 7.1549 27.6494 4.33474 24.8135 2.6381C24.6654 2.54946 24.5102 2.4765 24.3502 2.41826C27.203 4.86146 29.0116 8.48675 29.0116 12.5303C29.0116 19.88 23.0369 25.8468 15.6772 25.8468C15.617 25.8468 15.6109 25.8439 15.4948 25.8368V25.8368Z" fill="#1292EE"/>
<path d="M37.3714 24V12.12H45.3943V14.3657H40.0457V16.6971H44.7943V18.8914H40.0457V21.7543H45.7886V24H37.3714ZM50.4419 21.8229C50.5676 21.8343 50.7105 21.8457 50.8705 21.8571C51.0419 21.8571 51.2419 21.8571 51.4705 21.8571C52.8076 21.8571 53.7962 21.52 54.4362 20.8457C55.0876 20.1714 55.4133 19.24 55.4133 18.0514C55.4133 16.8057 55.1048 15.8629 54.4876 15.2229C53.8705 14.5829 52.8933 14.2629 51.5562 14.2629C51.3733 14.2629 51.1848 14.2686 50.9905 14.28C50.7962 14.28 50.6133 14.2914 50.4419 14.3143V21.8229ZM58.1733 18.0514C58.1733 19.08 58.0133 19.9771 57.6933 20.7429C57.3733 21.5086 56.9162 22.1429 56.3219 22.6457C55.7391 23.1486 55.0248 23.5257 54.1791 23.7771C53.3333 24.0286 52.3848 24.1543 51.3333 24.1543C50.8533 24.1543 50.2933 24.1314 49.6533 24.0857C49.0133 24.0514 48.3848 23.9714 47.7676 23.8457V12.2743C48.3848 12.16 49.0248 12.0857 49.6876 12.0514C50.3619 12.0057 50.9391 11.9829 51.4191 11.9829C52.4362 11.9829 53.3562 12.0971 54.1791 12.3257C55.0133 12.5543 55.7276 12.9143 56.3219 13.4057C56.9162 13.8971 57.3733 14.5257 57.6933 15.2914C58.0133 16.0571 58.1733 16.9771 58.1733 18.0514ZM59.8071 19.4914C59.8071 18.84 59.91 18.2286 60.1157 17.6571C60.3329 17.0743 60.6414 16.5714 61.0414 16.1486C61.4414 15.7143 61.9271 15.3714 62.4986 15.12C63.07 14.8686 63.7214 14.7429 64.4529 14.7429C64.9329 14.7429 65.3729 14.7886 65.7729 14.88C66.1729 14.96 66.5614 15.08 66.9386 15.24L66.4071 17.28C66.1671 17.1886 65.9043 17.1086 65.6186 17.04C65.3329 16.9714 65.0129 16.9371 64.6586 16.9371C63.9043 16.9371 63.3386 17.1714 62.9614 17.64C62.5957 18.1086 62.4129 18.7257 62.4129 19.4914C62.4129 20.3029 62.5843 20.9314 62.9271 21.3771C63.2814 21.8229 63.8929 22.0457 64.7614 22.0457C65.07 22.0457 65.4014 22.0171 65.7557 21.96C66.11 21.9029 66.4357 21.8114 66.7329 21.6857L67.0929 23.7771C66.7957 23.9029 66.4243 24.0114 65.9786 24.1029C65.5329 24.1943 65.0414 24.24 64.5043 24.24C63.6814 24.24 62.9729 24.12 62.3786 23.88C61.7843 23.6286 61.2929 23.2914 60.9043 22.8686C60.5271 22.4457 60.2471 21.9486 60.0643 21.3771C59.8929 20.7943 59.8071 20.1657 59.8071 19.4914ZM76.5043 23.6914C76.07 23.8171 75.51 23.9314 74.8243 24.0343C74.1386 24.1486 73.4186 24.2057 72.6643 24.2057C71.8986 24.2057 71.2586 24.1029 70.7443 23.8971C70.2414 23.6914 69.8414 23.4057 69.5443 23.04C69.2471 22.6629 69.0357 22.2171 68.91 21.7029C68.7843 21.1886 68.7214 20.6229 68.7214 20.0057V14.9829H71.2757V19.6971C71.2757 20.52 71.3843 21.1143 71.6014 21.48C71.8186 21.8457 72.2243 22.0286 72.8186 22.0286C73.0014 22.0286 73.1957 22.0229 73.4014 22.0114C73.6071 21.9886 73.79 21.9657 73.95 21.9429V14.9829H76.5043V23.6914ZM84.3363 17.2457C84.1077 17.1886 83.8392 17.1314 83.5306 17.0743C83.222 17.0057 82.8906 16.9714 82.5363 16.9714C82.3763 16.9714 82.182 16.9886 81.9534 17.0229C81.7363 17.0457 81.5706 17.0743 81.4563 17.1086V24H78.902V15.4629C79.3592 15.3029 79.8963 15.1543 80.5134 15.0171C81.142 14.8686 81.8392 14.7943 82.6049 14.7943C82.742 14.7943 82.9077 14.8057 83.102 14.8286C83.2963 14.84 83.4906 14.8629 83.6849 14.8971C83.8792 14.92 84.0734 14.9543 84.2677 15C84.462 15.0343 84.6277 15.08 84.7649 15.1371L84.3363 17.2457ZM88.7227 22.1657C89.1913 22.1657 89.5227 22.12 89.717 22.0286C89.9113 21.9371 90.0084 21.76 90.0084 21.4971C90.0084 21.2914 89.8827 21.1143 89.6313 20.9657C89.3799 20.8057 88.997 20.6286 88.4827 20.4343C88.0827 20.2857 87.717 20.1314 87.3856 19.9714C87.0656 19.8114 86.7913 19.6229 86.5627 19.4057C86.3342 19.1771 86.157 18.9086 86.0313 18.6C85.9056 18.2914 85.8427 17.92 85.8427 17.4857C85.8427 16.64 86.157 15.9714 86.7856 15.48C87.4142 14.9886 88.277 14.7429 89.3742 14.7429C89.9227 14.7429 90.4484 14.7943 90.9513 14.8971C91.4542 14.9886 91.8542 15.0914 92.1513 15.2057L91.7056 17.1943C91.4084 17.0914 91.0827 17 90.7284 16.92C90.3856 16.84 89.997 16.8 89.5627 16.8C88.7627 16.8 88.3627 17.0229 88.3627 17.4686C88.3627 17.5714 88.3799 17.6629 88.4142 17.7429C88.4484 17.8229 88.517 17.9029 88.6199 17.9829C88.7227 18.0514 88.8599 18.1314 89.0313 18.2229C89.2142 18.3029 89.4427 18.3943 89.717 18.4971C90.277 18.7029 90.7399 18.9086 91.1056 19.1143C91.4713 19.3086 91.757 19.5257 91.9627 19.7657C92.1799 19.9943 92.3284 20.2514 92.4084 20.5371C92.4999 20.8229 92.5456 21.1543 92.5456 21.5314C92.5456 22.4229 92.2084 23.0971 91.5342 23.5543C90.8713 24.0114 89.9284 24.24 88.7056 24.24C87.9056 24.24 87.237 24.1714 86.6999 24.0343C86.1742 23.8971 85.8084 23.7829 85.6027 23.6914L86.0313 21.6171C86.4656 21.7886 86.9113 21.9257 87.3684 22.0286C87.8256 22.12 88.277 22.1657 88.7227 22.1657ZM102.889 19.4743C102.889 20.1829 102.786 20.8343 102.58 21.4286C102.374 22.0114 102.077 22.5143 101.689 22.9371C101.3 23.3486 100.832 23.6686 100.283 23.8971C99.7459 24.1257 99.1402 24.24 98.4659 24.24C97.803 24.24 97.1973 24.1257 96.6487 23.8971C96.1116 23.6686 95.6487 23.3486 95.2602 22.9371C94.8716 22.5143 94.5687 22.0114 94.3516 21.4286C94.1345 20.8343 94.0259 20.1829 94.0259 19.4743C94.0259 18.7657 94.1345 18.12 94.3516 17.5371C94.5802 16.9543 94.8887 16.4571 95.2773 16.0457C95.6773 15.6343 96.1459 15.3143 96.683 15.0857C97.2316 14.8571 97.8259 14.7429 98.4659 14.7429C99.1173 14.7429 99.7116 14.8571 100.249 15.0857C100.797 15.3143 101.266 15.6343 101.654 16.0457C102.043 16.4571 102.346 16.9543 102.563 17.5371C102.78 18.12 102.889 18.7657 102.889 19.4743ZM100.283 19.4743C100.283 18.6857 100.123 18.0686 99.803 17.6229C99.4945 17.1657 99.0487 16.9371 98.4659 16.9371C97.883 16.9371 97.4316 17.1657 97.1116 17.6229C96.7916 18.0686 96.6316 18.6857 96.6316 19.4743C96.6316 20.2629 96.7916 20.8914 97.1116 21.36C97.4316 21.8171 97.883 22.0457 98.4659 22.0457C99.0487 22.0457 99.4945 21.8171 99.803 21.36C100.123 20.8914 100.283 20.2629 100.283 19.4743ZM107.456 22.1657C107.925 22.1657 108.256 22.12 108.45 22.0286C108.645 21.9371 108.742 21.76 108.742 21.4971C108.742 21.2914 108.616 21.1143 108.365 20.9657C108.113 20.8057 107.73 20.6286 107.216 20.4343C106.816 20.2857 106.45 20.1314 106.119 19.9714C105.799 19.8114 105.525 19.6229 105.296 19.4057C105.067 19.1771 104.89 18.9086 104.765 18.6C104.639 18.2914 104.576 17.92 104.576 17.4857C104.576 16.64 104.89 15.9714 105.519 15.48C106.147 14.9886 107.01 14.7429 108.107 14.7429C108.656 14.7429 109.182 14.7943 109.685 14.8971C110.187 14.9886 110.587 15.0914 110.885 15.2057L110.439 17.1943C110.142 17.0914 109.816 17 109.462 16.92C109.119 16.84 108.73 16.8 108.296 16.8C107.496 16.8 107.096 17.0229 107.096 17.4686C107.096 17.5714 107.113 17.6629 107.147 17.7429C107.182 17.8229 107.25 17.9029 107.353 17.9829C107.456 18.0514 107.593 18.1314 107.765 18.2229C107.947 18.3029 108.176 18.3943 108.45 18.4971C109.01 18.7029 109.473 18.9086 109.839 19.1143C110.205 19.3086 110.49 19.5257 110.696 19.7657C110.913 19.9943 111.062 20.2514 111.142 20.5371C111.233 20.8229 111.279 21.1543 111.279 21.5314C111.279 22.4229 110.942 23.0971 110.267 23.5543C109.605 24.0114 108.662 24.24 107.439 24.24C106.639 24.24 105.97 24.1714 105.433 24.0343C104.907 23.8971 104.542 23.7829 104.336 23.6914L104.765 21.6171C105.199 21.7886 105.645 21.9257 106.102 22.0286C106.559 22.12 107.01 22.1657 107.456 22.1657Z" fill="#2A3B47"/>
</svg>
